<svg xmlns="http://www.w3.org/2000/svg" version="1.2" viewBox="0 0 1190 634" width="180.19" height="96">
	<style>
		.s0 { fill: #8ce61e } 
		.s1 { fill: #232878 } 
	</style>
	<g id="Artwork">
		<g id="&lt;Group&gt;">
			<path id="&lt;Path&gt;" class="s0" d="m476.82 154.5l7.01 6.61c15.3 15.65 60.64 49.12 114.23 37.24 63.11-13.98 105.78-70.41 106.04-70.43-0.27-0.08-24.61 9.56-87.91-17.06-74.67-31.4-106.31-5.53-137.33 29.51l-1.66 1.69-5.76 6.73z"/>
			<path id="&lt;Compound Path&gt;" fill-rule="evenodd" class="s1" d="m448.71 145.62v299.95l-34.85-0.01c-17.1-1.12-30.72-14.84-31.69-31.92v-0.11-301.75h33.4c18.57 0.49 33.1 15.36 33.14 33.84zm-88.96 115.27v184.68h-32.44c-14.12-0.14-26.72-9.1-31.58-22.1-17.63 16.29-36.43 23.29-62.2 23.29-26.28 0-49.24-8.62-68.23-25.61-24.92-22.08-38.1-51.65-38.1-85.51 0-31.04 12.05-59.08 34.85-81.08 20.34-19.93 44.79-30.04 72.66-30.04 24.7 0 43.79 7.72 58.14 23.57v-20.35l35.85 0.01c17.4 1.56 30.59 15.75 30.93 33.13zm-64.51 75.15c0-29.49-21.56-51.73-50.16-51.73-28.09 0-50.94 22.84-50.94 50.93 0 29.29 22.42 50.55 53.32 50.55 12.69 0 24.63-5.06 33.61-14.23 9.14-9.33 14.17-21.94 14.17-35.52zm767.69-0.8c0 32.51-11.05 60.06-32.85 81.87-22.6 22.59-50.4 34.05-82.65 34.05-33.09 0-60.01-11.41-82.3-34.87-20.93-21.74-31.99-49.49-31.99-80.25 0-30.04 11.8-58.4 33.24-79.85 21.98-21.95 50.47-34.04 80.24-34.04 31.3 0 58.43 10.64 80.66 31.62 22.66 21.48 35.65 51.17 35.65 81.47zm-66.55 1.61c0-28.08-21.77-50.93-48.53-50.93-26.78 0-48.57 22.85-48.57 50.93 0 27.87 21.79 50.55 48.57 50.55 26.76 0 48.53-22.68 48.53-50.55zm-138.25-90.46c-11.32 11.29-20.26 24.28-26.59 38.61l-0.68 1.54-1.63-0.38c-12.01-2.81-21.68-1.39-28.74 4.2-9.91 7.87-14.94 23.77-14.94 47.27v107.94l-36.09-0.01c-16.87-1.1-30.47-14.63-31.65-31.46l-0.01-0.14v-186.22h30.87c14.97 0.01 28.21 9.85 32.53 24.05 9.65-14.86 35.42-40.12 93.8-23.72l4.07 1.14-3.45 2.45c-6.3 4.47-12.18 9.43-17.49 14.73zm-77.94 6.65l0.21 0.02q0.02-0.04 0.05-0.09zm-76.09 83.81c0 31.31-12.05 59.49-34.85 81.48-20.07 19.67-44.53 29.64-72.69 29.64-24.71 0-43.77-7.71-58.09-23.56v119.84h-35.06c-17.48-1.08-31.49-15.62-31.88-33.12v-283.39h30.91c14.53 0.01 27.45 9.3 32.13 22.84 17.48-17.38 36.61-24.85 63.2-24.85 26.27 0 49.23 8.61 68.23 25.59 24.92 22.11 38.1 51.69 38.1 85.53zm-66.95 0.39c0-29.28-22.42-50.54-53.32-50.54-26.77 0-47.75 21.85-47.75 49.74 0 29.5 21.39 51.74 49.75 51.74 28.3 0 51.32-22.85 51.32-50.94zm426.05-102.92c0 7.64-5.87 13.54-13.52 13.54-7.65 0-13.73-5.9-13.73-13.54 0-7.47 6.08-13.37 13.73-13.37h0.07c7.58 0 13.45 5.9 13.45 13.37zm-2.95 0.08c0-6.14-4.52-11.09-10.57-11.09h-0.11c-6.05 0-10.67 4.95-10.67 11.01 0 6.21 4.62 11.1 10.85 11.1 5.98 0.09 10.5-4.89 10.5-11.02zm-4.67 6.83h-2.5c-0.4-0.47-0.7-1.66-1.11-3.39-0.27-1.48-1.16-2.1-2.95-2.1h-1.58v5.49h-2.41v-13.09c1.33-0.22 2.75-0.39 4.52-0.39 2.2 0 3.32 0.39 4.09 1.03 0.77 0.53 1.29 1.56 1.29 2.8 0 1.58-1.13 2.58-2.48 3.07v0.16c1.1 0.47 1.72 1.5 2.12 3.2 0.36 1.97 0.69 2.75 1.01 3.22zm-3.13-9.4c0-1.26-0.87-2.18-3.12-2.18-0.94 0-1.48 0.08-1.89 0.14v4.07h1.64c1.73 0 3.37-0.56 3.37-2.03z"/>
		</g>
	</g>
</svg>